<svg xmlns="http://www.w3.org/2000/svg" xmlns:xlink="http://www.w3.org/1999/xlink" width="1080" zoomAndPan="magnify" viewBox="0 0 810 809.999993" height="1080" preserveAspectRatio="xMidYMid meet" version="1.0"><defs><clipPath id="993471da56"><path d="M 131.191406 304.421875 L 342 304.421875 L 342 516 L 131.191406 516 Z M 131.191406 304.421875 " clip-rule="nonzero"/></clipPath><clipPath id="9dc6c901df"><path d="M 179 346 L 455.191406 346 L 455.191406 623 L 179 623 Z M 179 346 " clip-rule="nonzero"/></clipPath></defs><path fill="#000000" d="M 237.679688 425.867188 L 238.167969 411.871094 L 252.152344 411.378906 C 255.785156 411.238281 258.722656 408.300781 258.863281 404.660156 L 259.632812 384.15625 C 259.773438 380.308594 256.765625 377.019531 252.921875 376.878906 C 249.074219 376.738281 245.789062 379.746094 245.648438 383.597656 L 245.160156 397.59375 L 231.175781 398.082031 C 227.539062 398.222656 224.605469 401.164062 224.464844 404.800781 L 223.972656 418.796875 L 209.992188 419.289062 C 206.144531 419.429688 203.140625 422.648438 203.277344 426.566406 C 203.417969 430.34375 206.496094 433.285156 210.269531 433.285156 C 210.339844 433.285156 210.410156 433.285156 210.550781 433.285156 L 231.035156 432.515625 C 234.601562 432.445312 237.539062 429.503906 237.679688 425.867188 Z M 237.679688 425.867188 " fill-opacity="1" fill-rule="nonzero"/><g clip-path="url(#993471da56)"><path fill="#000000" d="M 214.816406 515.304688 C 216.632812 515.304688 218.378906 514.605469 219.777344 513.273438 L 339.546875 393.394531 C 342.277344 390.664062 342.277344 386.257812 339.546875 383.527344 L 262.917969 306.757812 C 261.589844 305.425781 259.84375 304.726562 257.953125 304.726562 C 256.066406 304.726562 254.320312 305.496094 252.988281 306.757812 L 133.21875 426.636719 C 131.890625 427.964844 131.191406 429.714844 131.191406 431.605469 C 131.191406 433.496094 131.960938 435.242188 133.21875 436.574219 L 209.851562 513.273438 C 211.25 514.605469 212.996094 515.304688 214.816406 515.304688 Z M 257.953125 321.59375 L 324.726562 388.425781 L 214.816406 498.4375 L 148.042969 431.605469 Z M 257.953125 321.59375 " fill-opacity="1" fill-rule="nonzero"/></g><g clip-path="url(#9dc6c901df)"><path fill="#000000" d="M 455.191406 375.058594 C 455.191406 367.570312 452.257812 360.503906 447.011719 355.253906 C 441.769531 350.003906 434.636719 346.996094 427.15625 346.996094 C 419.675781 346.996094 412.613281 349.9375 407.300781 355.183594 L 397.441406 365.050781 C 394.714844 362.324219 390.308594 362.324219 387.582031 365.050781 C 384.855469 367.78125 384.855469 372.191406 387.582031 374.917969 L 372.757812 389.824219 C 370.03125 387.097656 365.628906 387.097656 362.902344 389.824219 C 360.175781 392.554688 360.175781 396.964844 362.902344 399.691406 L 210.199219 552.535156 C 210.0625 552.675781 209.921875 552.882812 209.78125 553.023438 C 209.710938 553.09375 209.710938 553.164062 209.640625 553.234375 C 209.570312 553.304688 209.5 553.445312 209.429688 553.585938 C 209.363281 553.652344 209.292969 553.722656 209.292969 553.792969 C 209.222656 553.863281 209.152344 554.003906 209.152344 554.074219 C 209.082031 554.144531 209.082031 554.285156 209.011719 554.355469 C 209.011719 554.355469 209.011719 554.425781 208.941406 554.425781 L 180.34375 612.789062 C 179.015625 615.449219 179.578125 618.667969 181.675781 620.835938 C 183.003906 622.167969 184.820312 622.867188 186.636719 622.867188 C 187.6875 622.867188 188.734375 622.65625 189.714844 622.167969 L 248.027344 593.542969 C 248.027344 593.542969 248.097656 593.542969 248.097656 593.472656 C 248.164062 593.402344 248.304688 593.402344 248.375 593.335938 C 248.445312 593.265625 248.585938 593.195312 248.65625 593.195312 C 248.726562 593.125 248.796875 593.125 248.863281 593.054688 C 249.003906 592.984375 249.074219 592.914062 249.214844 592.84375 C 249.285156 592.773438 249.355469 592.773438 249.425781 592.703125 C 249.5625 592.5625 249.773438 592.425781 249.914062 592.285156 L 402.476562 439.371094 C 403.875 440.773438 405.621094 441.402344 407.4375 441.402344 C 409.257812 441.402344 411.003906 440.703125 412.402344 439.371094 C 415.128906 436.644531 415.128906 432.234375 412.402344 429.503906 L 427.226562 414.667969 C 428.625 416.070312 430.371094 416.699219 432.191406 416.699219 C 434.007812 416.699219 435.757812 416 437.152344 414.667969 C 439.882812 411.941406 439.882812 407.53125 437.152344 404.800781 L 447.011719 394.933594 C 452.257812 389.546875 455.191406 382.546875 455.191406 375.058594 Z M 214.675781 594.3125 L 208.101562 587.734375 L 217.121094 569.332031 L 233.0625 585.285156 Z M 244.878906 577.378906 L 225.023438 557.503906 L 372.757812 409.628906 L 392.617188 429.503906 Z M 382.617188 399.691406 L 397.441406 384.855469 L 417.296875 404.730469 L 402.476562 419.636719 Z M 437.085938 384.996094 L 427.226562 394.863281 L 407.367188 374.988281 L 417.226562 365.121094 C 419.882812 362.460938 423.378906 360.992188 427.15625 360.992188 C 430.929688 360.992188 434.425781 362.460938 437.085938 365.121094 C 439.742188 367.78125 441.210938 371.28125 441.210938 375.058594 C 441.210938 378.769531 439.742188 382.335938 437.085938 384.996094 Z M 437.085938 384.996094 " fill-opacity="1" fill-rule="nonzero"/></g><path fill="#ff5757" d="M 810 405 C 810 411.628906 809.835938 418.253906 809.511719 424.871094 C 809.1875 431.492188 808.699219 438.101562 808.050781 444.695312 C 807.398438 451.292969 806.589844 457.871094 805.617188 464.425781 C 804.644531 470.980469 803.511719 477.511719 802.21875 484.011719 C 800.925781 490.511719 799.472656 496.976562 797.863281 503.40625 C 796.253906 509.835938 794.484375 516.222656 792.5625 522.566406 C 790.636719 528.90625 788.558594 535.199219 786.324219 541.441406 C 784.09375 547.679688 781.707031 553.863281 779.171875 559.988281 C 776.632812 566.109375 773.949219 572.167969 771.117188 578.160156 C 768.28125 584.152344 765.300781 590.070312 762.179688 595.914062 C 759.054688 601.761719 755.789062 607.527344 752.378906 613.210938 C 748.972656 618.898438 745.425781 624.496094 741.746094 630.003906 C 738.0625 635.515625 734.246094 640.933594 730.300781 646.257812 C 726.351562 651.582031 722.273438 656.804688 718.070312 661.929688 C 713.863281 667.054688 709.535156 672.070312 705.085938 676.980469 C 700.632812 681.890625 696.066406 686.691406 691.378906 691.378906 C 686.691406 696.066406 681.890625 700.632812 676.980469 705.085938 C 672.070312 709.535156 667.054688 713.863281 661.929688 718.070312 C 656.804688 722.273438 651.582031 726.351562 646.257812 730.300781 C 640.933594 734.246094 635.515625 738.0625 630.007812 741.746094 C 624.496094 745.425781 618.898438 748.972656 613.210938 752.378906 C 607.527344 755.789062 601.761719 759.054688 595.914062 762.179688 C 590.070312 765.300781 584.152344 768.28125 578.160156 771.117188 C 572.167969 773.949219 566.109375 776.632812 559.988281 779.171875 C 553.863281 781.707031 547.679688 784.09375 541.441406 786.324219 C 535.199219 788.558594 528.90625 790.636719 522.566406 792.5625 C 516.222656 794.484375 509.835938 796.253906 503.40625 797.863281 C 496.976562 799.472656 490.511719 800.925781 484.011719 802.21875 C 477.511719 803.511719 470.980469 804.644531 464.425781 805.617188 C 457.871094 806.589844 451.292969 807.398438 444.695312 808.050781 C 438.101562 808.699219 431.492188 809.1875 424.871094 809.511719 C 418.253906 809.835938 411.628906 810 405 810 C 398.371094 810 391.746094 809.835938 385.128906 809.511719 C 378.507812 809.1875 371.898438 808.699219 365.304688 808.050781 C 358.707031 807.398438 352.128906 806.589844 345.574219 805.617188 C 339.019531 804.644531 332.488281 803.511719 325.988281 802.21875 C 319.488281 800.925781 313.023438 799.472656 306.59375 797.863281 C 300.164062 796.253906 293.777344 794.484375 287.433594 792.5625 C 281.09375 790.636719 274.800781 788.558594 268.558594 786.324219 C 262.320312 784.09375 256.136719 781.707031 250.011719 779.171875 C 243.890625 776.632812 237.832031 773.949219 231.839844 771.117188 C 225.847656 768.28125 219.929688 765.300781 214.085938 762.179688 C 208.238281 759.054688 202.472656 755.789062 196.789062 752.378906 C 191.101562 748.972656 185.503906 745.425781 179.992188 741.746094 C 174.484375 738.0625 169.066406 734.246094 163.742188 730.300781 C 158.417969 726.351562 153.195312 722.273438 148.070312 718.070312 C 142.945312 713.863281 137.929688 709.535156 133.019531 705.085938 C 128.109375 700.632812 123.308594 696.066406 118.621094 691.378906 C 113.933594 686.691406 109.367188 681.890625 104.914062 676.980469 C 100.464844 672.070312 96.136719 667.054688 91.929688 661.929688 C 87.726562 656.804688 83.648438 651.582031 79.699219 646.257812 C 75.753906 640.933594 71.9375 635.515625 68.253906 630.007812 C 64.574219 624.496094 61.027344 618.898438 57.621094 613.210938 C 54.210938 607.527344 50.945312 601.761719 47.820312 595.914062 C 44.699219 590.070312 41.71875 584.152344 38.882812 578.160156 C 36.050781 572.167969 33.367188 566.109375 30.828125 559.988281 C 28.292969 553.863281 25.90625 547.679688 23.675781 541.441406 C 21.441406 535.199219 19.363281 528.90625 17.4375 522.566406 C 15.515625 516.222656 13.746094 509.835938 12.136719 503.40625 C 10.527344 496.976562 9.074219 490.511719 7.78125 484.011719 C 6.488281 477.511719 5.355469 470.980469 4.382812 464.425781 C 3.410156 457.871094 2.601562 451.292969 1.949219 444.695312 C 1.300781 438.101562 0.8125 431.492188 0.488281 424.871094 C 0.164062 418.253906 0 411.628906 0 405 C 0 398.371094 0.164062 391.746094 0.488281 385.128906 C 0.8125 378.507812 1.300781 371.898438 1.949219 365.304688 C 2.601562 358.707031 3.410156 352.128906 4.382812 345.574219 C 5.355469 339.019531 6.488281 332.488281 7.78125 325.988281 C 9.074219 319.488281 10.527344 313.023438 12.136719 306.59375 C 13.746094 300.164062 15.515625 293.777344 17.4375 287.433594 C 19.363281 281.09375 21.441406 274.800781 23.675781 268.558594 C 25.90625 262.320312 28.292969 256.136719 30.828125 250.011719 C 33.367188 243.890625 36.050781 237.832031 38.882812 231.839844 C 41.71875 225.847656 44.699219 219.929688 47.820312 214.085938 C 50.945312 208.238281 54.210938 202.472656 57.621094 196.789062 C 61.027344 191.101562 64.574219 185.503906 68.253906 179.992188 C 71.9375 174.484375 75.753906 169.066406 79.699219 163.742188 C 83.648438 158.417969 87.726562 153.195312 91.929688 148.070312 C 96.136719 142.945312 100.464844 137.929688 104.914062 133.019531 C 109.367188 128.109375 113.933594 123.308594 118.621094 118.621094 C 123.308594 113.933594 128.109375 109.367188 133.019531 104.914062 C 137.929688 100.464844 142.945312 96.136719 148.070312 91.929688 C 153.195312 87.726562 158.417969 83.648438 163.742188 79.699219 C 169.066406 75.753906 174.484375 71.9375 179.992188 68.253906 C 185.503906 64.574219 191.101562 61.027344 196.789062 57.621094 C 202.472656 54.210938 208.238281 50.945312 214.085938 47.820312 C 219.929688 44.699219 225.847656 41.71875 231.839844 38.882812 C 237.832031 36.050781 243.890625 33.367188 250.011719 30.828125 C 256.136719 28.292969 262.320312 25.90625 268.558594 23.675781 C 274.800781 21.441406 281.09375 19.363281 287.433594 17.4375 C 293.777344 15.515625 300.164062 13.746094 306.59375 12.136719 C 313.023438 10.527344 319.488281 9.074219 325.988281 7.78125 C 332.488281 6.488281 339.019531 5.355469 345.574219 4.382812 C 352.128906 3.410156 358.707031 2.601562 365.304688 1.949219 C 371.898438 1.300781 378.507812 0.8125 385.128906 0.488281 C 391.746094 0.164062 398.371094 0 405 0 C 411.628906 0 418.253906 0.164062 424.871094 0.488281 C 431.492188 0.8125 438.101562 1.300781 444.695312 1.949219 C 451.292969 2.601562 457.871094 3.410156 464.425781 4.382812 C 470.980469 5.355469 477.511719 6.488281 484.011719 7.78125 C 490.511719 9.074219 496.976562 10.527344 503.40625 12.136719 C 509.835938 13.746094 516.222656 15.515625 522.566406 17.4375 C 528.90625 19.363281 535.199219 21.441406 541.441406 23.675781 C 547.679688 25.90625 553.863281 28.292969 559.988281 30.828125 C 566.109375 33.367188 572.167969 36.050781 578.160156 38.882812 C 584.152344 41.71875 590.070312 44.699219 595.914062 47.820312 C 601.761719 50.945312 607.527344 54.210938 613.210938 57.621094 C 618.898438 61.027344 624.496094 64.574219 630.003906 68.253906 C 635.515625 71.9375 640.933594 75.753906 646.257812 79.699219 C 651.582031 83.648438 656.804688 87.726562 661.929688 91.929688 C 667.054688 96.136719 672.070312 100.464844 676.980469 104.914062 C 681.890625 109.367188 686.691406 113.933594 691.378906 118.621094 C 696.066406 123.308594 700.632812 128.109375 705.085938 133.019531 C 709.535156 137.929688 713.863281 142.945312 718.070312 148.070312 C 722.273438 153.195312 726.351562 158.417969 730.300781 163.742188 C 734.246094 169.066406 738.0625 174.484375 741.746094 179.992188 C 745.425781 185.503906 748.972656 191.101562 752.378906 196.789062 C 755.789062 202.472656 759.054688 208.238281 762.179688 214.085938 C 765.300781 219.929688 768.28125 225.847656 771.117188 231.839844 C 773.949219 237.832031 776.632812 243.890625 779.171875 250.011719 C 781.707031 256.136719 784.09375 262.320312 786.324219 268.558594 C 788.558594 274.800781 790.636719 281.09375 792.5625 287.433594 C 794.484375 293.777344 796.253906 300.164062 797.863281 306.59375 C 799.472656 313.023438 800.925781 319.488281 802.21875 325.988281 C 803.511719 332.488281 804.644531 339.019531 805.617188 345.574219 C 806.589844 352.128906 807.398438 358.707031 808.050781 365.304688 C 808.699219 371.898438 809.1875 378.507812 809.511719 385.128906 C 809.835938 391.746094 810 398.371094 810 405 Z M 810 405 " fill-opacity="1" fill-rule="nonzero"/><path fill="#5271ff" d="M 641.082031 403.285156 L 170.058594 403.285156 C 165.773438 403.285156 162.34375 399.855469 162.34375 395.855469 L 162.34375 195.785156 C 162.34375 191.496094 165.773438 188.066406 170.058594 188.066406 L 641.082031 188.066406 C 645.371094 188.066406 648.800781 191.496094 648.800781 195.785156 L 648.800781 395.566406 C 648.800781 399.855469 645.371094 403.285156 641.082031 403.285156 Z M 350.410156 303.25 L 342.121094 303.25 C 323.257812 303.25 307.535156 287.816406 307.535156 268.667969 C 307.535156 249.515625 323.257812 234.082031 342.121094 234.082031 L 364.699219 234.082031 C 368.703125 234.082031 372.132812 237.511719 372.132812 241.515625 C 372.132812 245.800781 368.703125 249.230469 364.699219 249.230469 L 342.121094 249.230469 C 331.546875 249.230469 322.972656 257.804688 322.972656 268.667969 C 322.972656 279.242188 331.546875 288.101562 342.121094 288.101562 L 350.410156 288.101562 C 369.273438 288.101562 384.992188 303.535156 384.992188 322.683594 C 384.992188 341.550781 369.273438 357.269531 350.410156 357.269531 L 327.828125 357.269531 C 323.828125 357.269531 320.398438 353.839844 320.398438 349.550781 C 320.398438 345.265625 323.828125 341.835938 327.828125 341.835938 L 350.410156 341.835938 C 360.984375 341.835938 369.558594 333.261719 369.558594 322.683594 C 369.558594 311.824219 360.984375 303.25 350.410156 303.25 Z M 227.792969 357.554688 C 223.792969 357.554688 220.363281 354.125 220.363281 349.835938 L 220.363281 241.515625 C 220.363281 238.085938 222.648438 234.941406 226.078125 234.367188 L 226.078125 234.082031 L 252.660156 234.082031 C 270.382812 234.082031 284.671875 248.375 284.671875 266.378906 L 284.671875 271.238281 C 284.671875 281.242188 280.097656 290.386719 272.382812 296.390625 C 278.667969 302.105469 282.386719 310.109375 282.671875 319.253906 L 282.671875 349.550781 C 282.671875 353.839844 279.527344 357.269531 275.238281 357.269531 C 270.953125 357.269531 267.523438 353.839844 267.523438 349.550781 L 267.238281 319.253906 C 267.238281 310.394531 260.089844 303.25 251.515625 303.25 L 235.511719 303.25 L 235.511719 349.835938 C 235.511719 354.125 232.082031 357.554688 227.792969 357.554688 Z M 235.511719 249.230469 L 235.511719 288.101562 L 252.660156 288.101562 C 261.804688 288.101562 269.523438 280.382812 269.523438 271.238281 L 269.523438 266.378906 C 269.523438 256.949219 261.804688 249.230469 252.660156 249.230469 Z M 451.585938 356.410156 C 448.445312 356.410156 445.871094 354.695312 444.726562 351.839844 L 394.425781 244.945312 C 392.710938 240.941406 394.425781 236.367188 398.140625 234.652344 C 401.855469 232.9375 406.429688 234.652344 408.144531 238.371094 L 451.585938 330.6875 L 494.746094 238.371094 C 496.460938 234.652344 501.035156 232.9375 504.75 234.652344 C 508.75 236.367188 510.179688 240.941406 508.464844 244.945312 L 458.449219 351.839844 C 457.019531 354.695312 454.445312 356.410156 451.585938 356.410156 Z M 533.902344 357.554688 C 529.902344 357.554688 526.472656 354.125 526.472656 349.835938 L 526.472656 241.515625 C 526.472656 238.085938 528.757812 234.941406 532.1875 234.367188 L 532.1875 234.082031 L 558.769531 234.082031 C 576.488281 234.082031 590.78125 248.375 590.78125 266.378906 L 590.78125 271.238281 C 590.78125 288.960938 576.488281 303.25 558.769531 303.25 L 541.621094 303.25 L 541.621094 349.835938 C 541.621094 354.125 538.191406 357.554688 533.902344 357.554688 Z M 541.621094 249.230469 L 541.621094 288.101562 L 558.769531 288.101562 C 567.914062 288.101562 575.632812 280.382812 575.632812 271.238281 L 575.632812 266.378906 C 575.632812 256.949219 567.914062 249.230469 558.769531 249.230469 Z M 541.621094 249.230469 " fill-opacity="1" fill-rule="evenodd"/><path fill="#5271ff" d="M 272.667969 508.464844 L 221.222656 508.464844 C 216.933594 508.464844 213.503906 505.320312 213.503906 501.035156 L 213.503906 418.433594 L 280.382812 418.433594 L 280.382812 501.035156 C 280.382812 505.320312 276.953125 508.464844 272.667969 508.464844 Z M 272.667969 508.464844 " fill-opacity="1" fill-rule="evenodd"/><path fill="#5271ff" d="M 589.921875 508.464844 L 538.476562 508.464844 C 534.1875 508.464844 531.042969 505.320312 531.042969 501.035156 L 531.042969 418.433594 L 597.640625 418.433594 L 597.640625 501.035156 C 597.640625 505.320312 594.210938 508.464844 589.921875 508.464844 Z M 589.921875 508.464844 " fill-opacity="1" fill-rule="evenodd"/><path fill="#5271ff" d="M 638.511719 621.648438 L 168.632812 621.648438 C 164.34375 621.648438 160.914062 618.21875 160.914062 613.929688 L 160.914062 570.488281 C 160.914062 552.765625 175.492188 538.191406 193.210938 538.191406 L 613.929688 538.191406 C 631.652344 538.191406 645.941406 552.765625 645.941406 570.488281 L 645.941406 613.929688 C 645.941406 618.21875 642.511719 621.648438 638.511719 621.648438 Z M 638.511719 621.648438 " fill-opacity="1" fill-rule="evenodd"/><path fill="#5271ff" d="M 605.355469 553.625 L 523.328125 553.625 C 519.039062 553.625 515.609375 550.195312 515.609375 545.90625 L 515.609375 501.035156 C 515.609375 496.746094 519.039062 493.316406 523.328125 493.316406 L 605.355469 493.316406 C 609.644531 493.316406 613.074219 496.746094 613.074219 501.035156 L 613.074219 545.90625 C 613.074219 550.195312 609.644531 553.625 605.355469 553.625 Z M 605.355469 553.625 " fill-opacity="1" fill-rule="evenodd"/><path fill="#5271ff" d="M 287.816406 553.625 L 205.785156 553.625 C 201.785156 553.625 198.355469 550.195312 198.355469 545.90625 L 198.355469 501.035156 C 198.355469 496.746094 201.785156 493.316406 205.785156 493.316406 L 287.816406 493.316406 C 292.101562 493.316406 295.53125 496.746094 295.53125 501.035156 L 295.53125 545.90625 C 295.53125 550.195312 292.101562 553.625 287.816406 553.625 Z M 287.816406 553.625 " fill-opacity="1" fill-rule="evenodd"/></svg>